<?xml version="1.0" encoding="utf-8"?>
<!-- Generator: Adobe Illustrator 22.0.1, SVG Export Plug-In . SVG Version: 6.00 Build 0)  -->
<svg version="1.1" id="Lager_1" xmlns="http://www.w3.org/2000/svg" xmlns:xlink="http://www.w3.org/1999/xlink" x="0px" y="0px"
	 viewBox="0 0 1000 1000" style="enable-background:new 0 0 1000 1000;" xml:space="preserve">
<g>
	<path d="M800,654.3h125.3l-0.5-148.9H953v177.1H771.9l0-88.6l-724.8,0V409.2l22.5-22.5h58.9l22.2,22.5v132h-29.9V490H76.9l0.3,79.7
		l722.8-2 M76.9,421.4v38.7h43.8v-38.7l-4.8-4.8H82.1L76.9,421.4z"/>
	<path d="M205.1,541.2l-22.2-22.5V408.9l22.2-22.5H264l22.2,22.4v21.7h-29.9v-9.3l-4.8-4.8h-33.9l-4.8,4.8v85.3l4.8,4.8h33.9
		l4.8-4.8v-31.2H227v-29.9h59.2v73.4L264,541.2H205.1z"/>
	<path d="M433.4,416.6h-20l-4.8,4.8v119.8h-29.9V421.4l-4.8-4.8h-20l-4.8,4.8v119.8h-29.9v-132l22.2-22.5h44.8l7.4,7.4l7.4-7.4h44.8
		l22.2,22.5v132h-29.9V421.4L433.4,416.6z"/>
	<path d="M530.6,541.2h-30.3v-132l22.5-22.5h58.9l22.2,22.5v132h-29.9V490h-43.8L530.6,541.2z M530.3,421.4v38.7h43.8v-38.7
		l-4.8-4.8h-33.9L530.3,421.4z"/>
	<path d="M710,541.2V421.4l-4.8-4.8H671l-4.8,4.8v119.8h-29.9v-132l22.3-22.5h59.1l22.3,22.5v132H710z"/>
	<path d="M771.8,541.6v-29.9h29.9v29.9H771.8z"/>
	<path d="M847.5,412.4h-18.3v-4.9l19.9-42.4l-19.9-42.4v-4.9h18.3l13.4,29.8l13.4-29.8h18.3v4.9l-19.9,42.4l19.9,42.4v4.9h-18.3
		l-13.4-29.8L847.5,412.4z"/>
	<path d="M842.2,481.7L829,468.5v-43.6h17.9V461l2.9,2.9h20.4l2.9-2.9v-36.1h17.9v43.6l-13.4,13.3h-8.6v35.4h-17.9v-35.4H842.2z"/>
	<path d="M874.2,595.1h18.4v16.4l-13.7,13.9h-47.7v-23.8l40.2-52.9h-21.2l-3,3v6.9h-18.4v-14.5l13.7-13.9h47.7v23.7l-40.4,53H871
		l3-2.9L874.2,595.1z"/>
</g>
</svg>
